<svg version="1.1" xmlns="http://www.w3.org/2000/svg" width="32" height="32" viewBox="0 0 32 32">
<path d="M1.975 0.069c-0.387 0.094-0.956 0.425-1.231 0.725-0.137 0.15-0.344 0.463-0.45 0.694l-0.2 0.419-0.019 3.888-0.019 3.894h3.438l0.038-0.238c0.163-0.938 0.513-1.625 1.194-2.313l0.519-0.525-0.181-0.35c-0.806-1.619 0.063-3.519 1.837-3.987 1.188-0.319 2.537 0.288 3.119 1.394 0.463 0.894 0.469 1.781 0.019 2.644l-0.156 0.3 0.512 0.525c0.688 0.688 1.037 1.375 1.2 2.313l0.037 0.238h3.431v-9.688l-6.419 0.006c-3.625 0.006-6.531 0.031-6.669 0.063z"></path>
<path d="M16.938 4.844v4.844h3.431l0.038-0.238c0.163-0.938 0.512-1.625 1.194-2.313l0.519-0.525-0.181-0.35c-0.806-1.619 0.063-3.519 1.837-3.987 1.188-0.319 2.538 0.288 3.119 1.394 0.462 0.894 0.469 1.781 0.019 2.644l-0.156 0.3 0.512 0.525c0.688 0.688 1.038 1.375 1.2 2.313l0.038 0.238h3.438l-0.038-7.787-0.231-0.475c-0.281-0.569-0.644-0.919-1.225-1.194l-0.419-0.2-13.094-0.031v4.844z"></path>
<path d="M7.112 4.194c-0.269 0.138-0.487 0.506-0.487 0.806 0 0.475 0.463 0.938 0.938 0.938s0.938-0.463 0.938-0.938c0-0.313-0.219-0.669-0.5-0.813-0.306-0.156-0.588-0.156-0.888 0.006z"></path>
<path d="M23.988 4.194c-0.269 0.138-0.488 0.506-0.488 0.806 0 0.313 0.219 0.669 0.5 0.813 0.131 0.069 0.331 0.125 0.438 0.125s0.306-0.056 0.438-0.125c0.281-0.144 0.5-0.5 0.5-0.813s-0.219-0.669-0.5-0.813c-0.306-0.156-0.587-0.156-0.887 0.006z"></path>
<path d="M6.956 7.9c-0.763 0.25-1.3 0.8-1.506 1.55l-0.063 0.238h4.356l-0.081-0.281c-0.281-0.925-1.044-1.525-2-1.575-0.263-0.013-0.55 0.019-0.706 0.069z"></path>
<path d="M23.831 7.9c-0.762 0.25-1.3 0.8-1.506 1.55l-0.063 0.238h4.356l-0.081-0.281c-0.281-0.925-1.044-1.525-2-1.575-0.262-0.013-0.55 0.019-0.706 0.069z"></path>
<path d="M0.063 16.406v4.844h3.431l0.038-0.238c0.163-0.938 0.513-1.625 1.2-2.313l0.513-0.525-0.156-0.3c-0.588-1.119-0.388-2.406 0.506-3.281 1.125-1.113 2.838-1.113 3.938-0.006 0.894 0.894 1.088 2.138 0.512 3.269l-0.162 0.319 0.512 0.525c0.688 0.688 1.037 1.369 1.2 2.313l0.037 0.238h3.431v-9.688h-15v4.844z"></path>
<path d="M16.938 16.406v4.844h3.431l0.038-0.238c0.163-0.938 0.512-1.625 1.2-2.313l0.512-0.525-0.156-0.3c-0.587-1.119-0.387-2.406 0.506-3.281 1.125-1.113 2.837-1.113 3.938-0.006 0.894 0.894 1.087 2.138 0.512 3.269l-0.163 0.319 0.512 0.525c0.688 0.688 1.038 1.369 1.2 2.313l0.038 0.238h3.431v-9.688h-15v4.844z"></path>
<path d="M7.112 15.756c-0.269 0.137-0.487 0.506-0.487 0.806 0 0.475 0.463 0.938 0.938 0.938s0.938-0.462 0.938-0.938c0-0.313-0.219-0.669-0.5-0.813-0.306-0.156-0.588-0.156-0.888 0.006z"></path>
<path d="M23.988 15.756c-0.269 0.137-0.488 0.506-0.488 0.806 0 0.313 0.219 0.669 0.5 0.813 0.131 0.069 0.331 0.125 0.438 0.125 0.475 0 0.938-0.462 0.938-0.938 0-0.313-0.219-0.669-0.5-0.813-0.306-0.156-0.587-0.156-0.887 0.006z"></path>
<path d="M6.956 19.462c-0.763 0.25-1.3 0.8-1.506 1.55l-0.063 0.238h4.356l-0.081-0.281c-0.281-0.925-1.044-1.525-2-1.575-0.263-0.012-0.55 0.019-0.706 0.069z"></path>
<path d="M23.831 19.462c-0.762 0.25-1.3 0.8-1.506 1.55l-0.063 0.238h4.356l-0.081-0.281c-0.281-0.925-1.044-1.525-2-1.575-0.262-0.012-0.55 0.019-0.706 0.069z"></path>
<path d="M0.075 23.744c0.025 0.519 0.063 0.681 0.225 1.025 0.263 0.569 0.619 0.938 1.188 1.219l0.475 0.231h28.075l0.475-0.231c0.569-0.281 0.925-0.65 1.188-1.219 0.163-0.344 0.2-0.506 0.225-1.025l0.031-0.619h-31.913l0.031 0.619z"></path>
<path d="M11.269 29.106l-0.319 0.988-1.050 0.031c-0.85 0.025-1.094 0.050-1.256 0.144-0.238 0.125-0.456 0.512-0.456 0.794 0 0.313 0.219 0.669 0.5 0.813 0.244 0.125 0.35 0.125 7.313 0.125s7.069 0 7.313-0.125c0.281-0.144 0.5-0.5 0.5-0.813 0-0.281-0.219-0.669-0.456-0.794-0.163-0.094-0.406-0.119-1.256-0.144l-1.050-0.031-0.319-0.988-0.319-0.981h-8.825l-0.319 0.981z"></path>
</svg>
