<!-- Generated by IcoMoon.io -->
<svg version="1.1" xmlns="http://www.w3.org/2000/svg" width="32" height="32" viewBox="0 0 32 32">
<title>creator</title>
<path d="M12.606 1.756c-0.481 0.113-0.95 0.388-1.363 0.8-0.738 0.737-0.963 1.456-0.919 2.938 0.019 0.688 0.037 0.819 0.162 1.013 0.294 0.475 0.131 0.463 4.513 0.481 4.375 0.019 4.481 0.013 5.163-0.4 0.663-0.4 1.087-0.925 1.344-1.656 0.113-0.331 0.144-0.581 0.163-1.4 0.025-0.95 0.019-1.012-0.119-1.281-0.081-0.156-0.238-0.344-0.356-0.419l-0.212-0.144-4.069 0.006c-2.238 0.006-4.175 0.031-4.306 0.063z"></path>
<path d="M21.281 7.444c-0.413 0.325-0.975 0.594-1.569 0.744-0.456 0.119-0.706 0.125-4.588 0.125-3.931 0-4.119-0.006-4.463-0.125l-0.363-0.125 0.025 1.675c0.031 1.456 0.050 1.731 0.169 2.169 0.481 1.775 1.813 3.113 3.6 3.606 0.45 0.119 0.65 0.137 1.906 0.137s1.456-0.019 1.906-0.137c1.788-0.494 3.119-1.831 3.6-3.606 0.125-0.456 0.137-0.688 0.169-2.613 0.012-1.156 0-2.106-0.031-2.1-0.025 0-0.188 0.112-0.363 0.25z"></path>
<path d="M10.375 15.094c-1.519 0.319-2.831 1.325-3.519 2.688-0.169 0.344-0.419 1.1-0.419 1.288 0 0.1 0.019 0.106 0.206 0.038 0.294-0.106 18.419-0.106 18.719 0 0.181 0.069 0.2 0.063 0.2-0.038 0-0.188-0.25-0.944-0.419-1.288-0.394-0.788-1.175-1.637-1.881-2.050-1.1-0.644-2.637-0.925-3.125-0.563-0.094 0.069-0.381 0.4-0.637 0.744-0.637 0.838-0.981 1.169-1.519 1.425-0.538 0.262-1.019 0.35-1.981 0.35-1.769 0-2.419-0.337-3.55-1.838-0.556-0.744-0.656-0.813-1.219-0.831-0.25-0.006-0.631 0.025-0.856 0.075z"></path>
<path d="M6.95 20.431c-0.694 0.238-1.138 0.825-1.138 1.512 0 0.206 0.256 1.9 0.563 3.762 0.481 2.9 0.588 3.438 0.737 3.731 0.188 0.381 0.569 0.706 0.938 0.813 0.319 0.087 15.581 0.087 15.9 0 0.369-0.106 0.75-0.431 0.938-0.813 0.15-0.294 0.256-0.831 0.738-3.731 0.306-1.863 0.563-3.556 0.563-3.762 0-0.7-0.488-1.325-1.2-1.538-0.281-0.081-1.4-0.094-9.012-0.094-8.256 0.006-8.713 0.012-9.025 0.119zM16.55 24.512c0.806 0.494 0.413 1.8-0.55 1.8-0.725 0-1.213-0.775-0.887-1.413 0.156-0.3 0.25-0.387 0.556-0.5 0.281-0.1 0.6-0.063 0.881 0.113z"></path>
</svg>
