<!-- Generated by IcoMoon.io -->
<svg version="1.1" xmlns="http://www.w3.org/2000/svg" width="32" height="32" viewBox="0 0 32 32">
<title>genre</title>
<path d="M6.844 1.1c-2.612 0.469-4.7 2.275-5.494 4.75-1.175 3.669 0.806 7.575 4.463 8.787 0.969 0.325 1.088 0.331 4.95 0.331 3.544 0 3.606 0 3.775-0.131 0.094-0.069 0.231-0.206 0.3-0.3 0.131-0.169 0.131-0.231 0.131-3.775 0-3.862-0.006-3.981-0.331-4.95-0.45-1.369-1.431-2.7-2.575-3.513-1.494-1.056-3.469-1.512-5.219-1.2z"></path>
<path d="M23.031 1.069c-1.5 0.219-2.894 0.919-3.969 1.994-1.113 1.112-1.794 2.506-2 4.081-0.044 0.325-0.063 1.737-0.050 3.869 0.019 3.275 0.019 3.356 0.15 3.525 0.069 0.094 0.206 0.231 0.3 0.3 0.169 0.131 0.25 0.131 3.525 0.15 4.306 0.025 4.644-0.019 6.106-0.738 0.875-0.431 1.587-0.975 2.156-1.625 1.906-2.219 2.281-5.206 0.975-7.794-0.825-1.644-2.275-2.888-4.069-3.487-0.887-0.3-2.175-0.412-3.125-0.275z"></path>
<path d="M6.875 17.094c-1.838 0.294-3.6 1.419-4.669 2.975-0.288 0.419-0.688 1.25-0.863 1.788-0.956 2.925 0.169 6.181 2.744 7.95 0.438 0.3 1.5 0.788 2.038 0.938 2.738 0.744 5.662-0.219 7.369-2.431 0.481-0.625 0.919-1.431 1.144-2.125 0.325-0.975 0.331-1.087 0.331-4.95 0-3.544 0-3.606-0.131-3.775-0.069-0.094-0.206-0.231-0.3-0.3-0.169-0.131-0.244-0.131-3.65-0.144-2.669-0.006-3.606 0.012-4.013 0.075z"></path>
<path d="M17.594 17.087c-0.231 0.1-0.438 0.325-0.525 0.556s-0.094 6.65-0.006 7.262c0.269 1.863 1.2 3.488 2.65 4.606 1.837 1.419 4.319 1.856 6.462 1.144 3.256-1.094 5.25-4.338 4.731-7.719-0.456-3.006-2.837-5.387-5.844-5.844-0.831-0.131-7.188-0.131-7.469-0.006z"></path>
</svg>
